<?xml version="1.0" standalone="no"?>
<!DOCTYPE svg PUBLIC "-//W3C//DTD SVG 20010904//EN"
 "http://www.w3.org/TR/2001/REC-SVG-20010904/DTD/svg10.dtd">
<svg version="1.0" xmlns="http://www.w3.org/2000/svg"
 width="500.000000pt" height="500.000000pt" viewBox="0 0 500.000000 500.000000"
 preserveAspectRatio="xMidYMid meet">
<metadata>
Created by potrace 1.14, written by Peter Selinger 2001-2017
</metadata>
<g transform="translate(0.000000,500.000000) scale(0.100000,-0.100000)"
fill="#000000" stroke="none">
<path d="M1308 3680 l-1202 -1201 1202 -1202 1202 -1202 1203 1203 1202 1202
-1202 1201 -1202 1200 -1203 -1201z m2332 -80 l1121 -1121 -562 -562 c-309
-309 -816 -815 -1125 -1125 l-563 -563 -1121 1121 c-616 616 -1120 1124 -1120
1129 0 10 2231 2241 2242 2241 4 0 511 -504 1128 -1120z"/>
<path d="M2271 4035 c-5 -5 -9 -36 -9 -67 l0 -57 42 -3 c22 -2 128 -2 234 0
l193 3 -3 67 -3 67 -223 0 c-139 0 -227 -4 -231 -10z"/>
<path d="M2106 3841 c-3 -4 -5 -35 -5 -69 1 -60 1 -62 27 -62 34 -1 755 -1
763 0 4 0 5 105 0 131 -1 9 -780 9 -785 0z"/>
<path d="M1959 3646 c-1 -1 -3 -31 -4 -68 -2 -67 -2 -68 24 -68 279 -5 1056 1
1060 9 5 7 6 71 2 117 -1 7 -161 11 -541 11 -297 0 -541 -1 -541 -1z"/>
<path d="M2265 3443 c-22 -2 -171 -4 -331 -5 -262 -3 -294 -5 -311 -20 -11
-10 -24 -18 -29 -18 -17 0 -81 -69 -100 -108 -13 -26 -19 -59 -19 -112 0 -109
37 -169 139 -230 54 -33 172 -34 231 -3 57 31 98 71 122 123 24 49 38 109 26
111 -30 4 -121 6 -134 3 -8 -2 -20 -19 -27 -37 -30 -83 -161 -93 -203 -15 -23
44 -18 86 16 126 l33 37 831 0 831 0 30 -31 c57 -56 42 -142 -32 -177 -58 -27
-117 -4 -148 57 l-20 41 -74 0 -73 1 4 -36 c16 -115 119 -215 234 -225 219
-20 365 212 250 398 -27 44 -91 90 -146 106 -27 8 -204 12 -550 14 -280 1
-528 1 -550 0z"/>
<path d="M2075 3181 c-3 -2 -5 -466 -5 -1031 l0 -1027 95 -94 c52 -51 98 -95
102 -96 4 -2 8 348 7 777 0 429 3 777 7 773 5 -6 27 -66 34 -93 1 -3 4 -12 8
-20 5 -13 389 -1166 392 -1180 1 -3 4 -12 8 -20 3 -8 22 -66 42 -127 20 -62
40 -113 44 -113 4 0 23 27 42 60 18 33 37 60 42 60 4 0 7 5 7 11 0 6 14 31 31
56 l32 46 1 1011 1 1011 -103 0 -102 0 0 -729 c0 -401 -1 -730 -3 -732 -3 -3
-54 152 -365 1101 l-118 360 -98 0 c-53 1 -99 -1 -101 -4z"/>
<path d="M1666 2782 c-14 -3 -16 -61 -16 -619 l0 -615 90 -90 c50 -50 91 -84
91 -77 1 8 2 325 3 706 l1 692 -76 3 c-42 2 -84 2 -93 0z m54 -643 c0 -543 -2
-610 -15 -599 -22 18 -21 1210 1 1210 12 0 14 -89 14 -611z m75 -33 c0 -351
-3 -640 -7 -642 -4 -2 -10 1 -14 8 -7 12 -13 1256 -6 1271 2 4 9 6 15 4 8 -2
11 -182 12 -641z"/>
<path d="M3208 2779 c-10 -6 -16 -1394 -6 -1404 2 -2 44 35 93 83 l89 87 1
618 c1 549 -1 617 -15 618 -81 4 -154 3 -162 -2z m61 -651 c0 -343 -3 -633 -6
-645 -3 -13 -9 -23 -13 -23 -4 0 -8 290 -8 645 0 530 3 645 14 645 11 0 13
-111 13 -622z m73 610 c2 -7 3 -278 2 -601 -1 -430 -4 -591 -12 -599 -7 -7
-12 -10 -13 -8 -3 14 -4 1206 -1 1213 5 11 19 8 24 -5z"/>
</g>
</svg>
