<svg width="458" height="418" viewBox="0 0 458 418" fill="none" xmlns="http://www.w3.org/2000/svg">
<path d="M452.168 129.485H433.26L232 1.42101C231.103 0.850354 230.063 0.547241 229 0.547241C227.937 0.547241 226.897 0.850354 226 1.42101L24.74 129.485H5.83202C4.34999 129.485 2.92866 130.074 1.88071 131.122C0.832754 132.17 0.244019 133.591 0.244019 135.073V169.865C0.244019 171.347 0.832754 172.768 1.88071 173.816C2.92866 174.864 4.34999 175.453 5.83202 175.453H51.47V336.021H33.011V194.33C33.011 192.848 32.4223 191.427 31.3743 190.379C30.3264 189.331 28.905 188.742 27.423 188.742C25.941 188.742 24.5197 189.331 23.4717 190.379C22.4238 191.427 21.835 192.848 21.835 194.33V339.5C21.9764 340.197 21.9764 340.915 21.835 341.612V371.487H5.83502C5.10111 371.487 4.37439 371.632 3.69635 371.912C3.01832 372.193 2.40226 372.605 1.88335 373.124C1.36445 373.643 0.952857 374.259 0.672092 374.937C0.391328 375.615 0.246887 376.342 0.247019 377.076V411.868C0.247019 412.602 0.391557 413.328 0.67238 414.006C0.953204 414.684 1.36481 415.3 1.88371 415.819C2.4026 416.338 3.01862 416.75 3.69658 417.031C4.37455 417.311 5.10119 417.456 5.83502 417.456H452.168C453.65 417.456 455.071 416.867 456.119 415.819C457.167 414.771 457.756 413.35 457.756 411.868V377.073C457.756 376.339 457.612 375.612 457.331 374.934C457.05 374.256 456.639 373.64 456.12 373.121C455.601 372.602 454.985 372.19 454.307 371.909C453.629 371.629 452.902 371.484 452.168 371.484H436.168V341.609C436.027 340.912 436.027 340.194 436.168 339.497V175.453H452.168C453.65 175.453 455.071 174.864 456.119 173.816C457.167 172.768 457.756 171.347 457.756 169.865V135.073C457.756 133.591 457.167 132.17 456.119 131.122C455.071 130.074 453.65 129.485 452.168 129.485ZM229 12.76L412.439 129.485H381.439L233.007 34.617C232.109 34.042 231.064 33.7364 229.998 33.7364C228.931 33.7364 227.886 34.042 226.988 34.617L189.088 58.841C188.467 59.235 187.93 59.7477 187.507 60.3498C187.085 60.9518 186.785 61.6313 186.626 62.3493C186.467 63.0673 186.451 63.8097 186.579 64.5339C186.707 65.2581 186.977 65.9499 187.374 66.5695C187.77 67.1892 188.284 67.7245 188.888 68.1449C189.491 68.5652 190.172 68.8623 190.89 69.0191C191.609 69.1759 192.351 69.1892 193.075 69.0585C193.799 68.9277 194.49 68.6553 195.108 68.257L230 45.957L360.692 129.485H99.306L148.896 97.791C150.145 96.9927 151.025 95.731 151.344 94.2835C151.662 92.836 151.393 91.3213 150.595 90.0725C149.796 88.8237 148.535 87.9432 147.087 87.6247C145.64 87.3062 144.125 87.5757 142.876 88.374L78.552 129.485H45.561L229 12.76ZM33.011 347.2H424.989V371.486H33.011V347.2ZM120.648 188.744C119.166 188.744 117.745 189.333 116.697 190.381C115.649 191.429 115.06 192.85 115.06 194.332V336.021H62.646V175.453H144.7V336.021H126.237V194.33C126.237 192.848 125.648 191.427 124.6 190.379C123.552 189.331 122.13 188.742 120.648 188.742V188.744ZM213.872 188.744C212.39 188.744 210.969 189.333 209.921 190.381C208.873 191.429 208.284 192.85 208.284 194.332V336.021H155.871V175.453H237.92V336.021H219.461V194.33C219.461 192.848 218.872 191.427 217.824 190.379C216.776 189.331 215.354 188.742 213.872 188.742V188.744ZM307.407 188.744C306.673 188.744 305.947 188.889 305.269 189.169C304.591 189.45 303.975 189.862 303.456 190.381C302.937 190.9 302.525 191.516 302.244 192.194C301.964 192.872 301.819 193.598 301.819 194.332V336.021H249.1V175.453H331.457V336.021H313V194.33C313 193.596 312.855 192.869 312.574 192.191C312.293 191.512 311.881 190.896 311.361 190.377C310.842 189.858 310.225 189.447 309.547 189.166C308.868 188.886 308.141 188.741 307.407 188.742V188.744ZM400.942 188.744C399.46 188.744 398.039 189.333 396.991 190.381C395.943 191.429 395.354 192.85 395.354 194.332V336.021H342.63V175.453H424.989V336.021H406.53V194.33C406.53 193.596 406.385 192.87 406.105 192.192C405.824 191.514 405.412 190.898 404.893 190.379C404.374 189.86 403.758 189.448 403.08 189.167C402.403 188.887 401.676 188.742 400.942 188.742V188.744ZM446.579 382.663V406.278H11.421V382.661L446.579 382.663ZM446.579 164.279H11.421V140.661H446.579V164.279Z" fill="black"/>
</svg>
