<svg width="32" height="32" viewBox="0 0 32 32" fill="none" xmlns="http://www.w3.org/2000/svg">
<g clip-path="url(#clip0_2_15)">
<path d="M31.992 22.462C31.9893 22.428 31.9829 22.3945 31.973 22.362C31.9647 22.3274 31.9526 22.2939 31.937 22.262C31.931 22.251 31.931 22.238 31.924 22.228L27 14.357V8.99996H29.5C29.6326 8.99996 29.7598 8.94728 29.8536 8.85351C29.9473 8.75975 30 8.63257 30 8.49996V8.34596C29.9968 7.71848 29.759 7.11488 29.3334 6.65376C28.9079 6.19265 28.3252 5.90737 27.7 5.85396L17.5 5.03796V3.30896C17.7546 3.02029 17.9205 2.66429 17.9777 2.28368C18.035 1.90307 17.9812 1.51402 17.8229 1.16321C17.6645 0.8124 17.4083 0.514739 17.085 0.305942C16.7616 0.0971458 16.3849 -0.013916 16 -0.013916C15.6151 -0.013916 15.2384 0.0971458 14.915 0.305942C14.5917 0.514739 14.3355 0.8124 14.1771 1.16321C14.0188 1.51402 13.965 1.90307 14.0223 2.28368C14.0795 2.66429 14.2454 3.02029 14.5 3.30896V4.99496L4.291 5.84896C3.66757 5.90447 3.08726 6.19054 2.66357 6.65122C2.23987 7.11191 2.00326 7.71407 2 8.33996V8.49996C2 8.63257 2.05268 8.75975 2.14645 8.85351C2.24021 8.94728 2.36739 8.99996 2.5 8.99996H5V14.357L0.076 22.235C0.069 22.246 0.069 22.258 0.063 22.269C0.0473803 22.3009 0.0353081 22.3344 0.027 22.369C0.017118 22.4015 0.0107485 22.435 0.008 22.469C0.008 22.482 0 22.494 0 22.507C0 23.9657 0.579463 25.3646 1.61091 26.396C2.64236 27.4275 4.04131 28.007 5.5 28.007C6.95869 28.007 8.35764 27.4275 9.38909 26.396C10.4205 25.3646 11 23.9657 11 22.507C11 22.493 10.993 22.482 10.992 22.469C10.9893 22.435 10.9829 22.4015 10.973 22.369C10.9647 22.3344 10.9526 22.3009 10.937 22.269C10.931 22.258 10.931 22.245 10.924 22.235L6 14.357V8.99996H14.5V19.39C14.3433 19.5294 14.2177 19.7003 14.1315 19.8916C14.0454 20.0829 14.0006 20.2902 14 20.5V28.09L11.362 28.617C10.6965 28.7519 10.098 29.1126 9.6676 29.6378C9.23724 30.1631 9.00142 30.8209 9 31.5C9 31.6326 9.05268 31.7597 9.14645 31.8535C9.24021 31.9473 9.36739 32 9.5 32H22.5C22.6326 32 22.7598 31.9473 22.8536 31.8535C22.9473 31.7597 23 31.6326 23 31.5C22.9985 30.8207 22.7626 30.1629 22.332 29.6376C21.9015 29.1123 21.3027 28.7517 20.637 28.617L18 28.1V20.5C17.9994 20.2902 17.9546 20.0829 17.8685 19.8916C17.7823 19.7003 17.6567 19.5294 17.5 19.39V8.99996H26V14.357L21.076 22.236C21.069 22.247 21.069 22.259 21.063 22.27C21.0474 22.3019 21.0353 22.3354 21.027 22.37C21.0171 22.4025 21.0107 22.436 21.008 22.47C21.008 22.483 21 22.495 21 22.508C21 23.9667 21.5795 25.3656 22.6109 26.397C23.6424 27.4285 25.0413 28.008 26.5 28.008C27.9587 28.008 29.3576 27.4285 30.3891 26.397C31.4205 25.3656 32 23.9667 32 22.508C32 22.486 31.993 22.475 31.992 22.462ZM16 0.99996C16.1978 0.99996 16.3911 1.05861 16.5556 1.16849C16.72 1.27837 16.8482 1.43455 16.9239 1.61728C16.9996 1.8 17.0194 2.00107 16.9808 2.19505C16.9422 2.38903 16.847 2.56721 16.7071 2.70707C16.5673 2.84692 16.3891 2.94216 16.1951 2.98075C16.0011 3.01933 15.8 2.99953 15.6173 2.92384C15.4346 2.84815 15.2784 2.71998 15.1685 2.55553C15.0586 2.39108 15 2.19774 15 1.99996C15 1.73474 15.1054 1.48039 15.2929 1.29285C15.4804 1.10532 15.7348 0.99996 16 0.99996ZM16.5 3.92896V19H15.5V3.92896C15.8266 4.02368 16.1734 4.02368 16.5 3.92896ZM15 20.5C15 20.3674 15.0527 20.2402 15.1464 20.1464C15.2402 20.0526 15.3674 20 15.5 20H16.5C16.6326 20 16.7598 20.0526 16.8536 20.1464C16.9473 20.2402 17 20.3674 17 20.5V28H15V20.5ZM5.5 27C4.39339 26.9986 3.32594 26.5902 2.50105 25.8526C1.67616 25.1149 1.15148 24.0995 1.027 23H9.973C9.84852 24.0995 9.32384 25.1149 8.49895 25.8526C7.67406 26.5902 6.60661 26.9986 5.5 27ZM9.6 22H1.4L5.5 15.443L9.6 22ZM3.039 7.99996C3.11256 7.69172 3.28112 7.41438 3.52084 7.20713C3.76057 6.99988 4.05936 6.87319 4.375 6.84496L14.5 5.99996V7.99996H3.039ZM20.439 29.6C20.7937 29.6714 21.1216 29.8403 21.3858 30.0875C21.65 30.3348 21.8402 30.6507 21.935 31H10.065C10.1597 30.6512 10.3494 30.3356 10.6131 30.0883C10.8767 29.8411 11.2038 29.672 11.558 29.6L14.5 29H17.451L20.439 29.6ZM17.5 7.99996V6.04196L27.619 6.85196C27.9345 6.87865 28.2337 7.00385 28.4741 7.20987C28.7146 7.41588 28.8842 7.69227 28.959 7.99996H17.5ZM26.5 15.443L30.6 22H22.4L26.5 15.443ZM26.5 27C25.3934 26.9986 24.3259 26.5902 23.501 25.8526C22.6762 25.1149 22.1515 24.0995 22.027 23H30.972C30.8475 24.0994 30.323 25.1146 29.4983 25.8522C28.6736 26.5899 27.6064 26.9984 26.5 27Z" fill="black"/>
</g>
<defs>
<clipPath id="clip0_2_15">
<rect width="32" height="32" fill="white"/>
</clipPath>
</defs>
</svg>
